<?xml version="1.0" standalone="no"?>
<!DOCTYPE svg PUBLIC "-//W3C//DTD SVG 20010904//EN"
 "http://www.w3.org/TR/2001/REC-SVG-20010904/DTD/svg10.dtd">
<svg version="1.0" xmlns="http://www.w3.org/2000/svg"
 width="479.000000pt" height="382.000000pt" viewBox="0 0 479.000000 382.000000"
 preserveAspectRatio="xMidYMid meet">

<g transform="translate(0.000000,382.000000) scale(0.100000,-0.100000)"
fill="#000000" stroke="none">
<path d="M687 3573 c-9 -9 -9 -51 1 -56 4 -3 7 10 7 29 0 19 0 34 -1 34 0 0
-4 -3 -7 -7z"/>
<path d="M3953 3540 c0 -25 2 -35 4 -22 2 12 2 32 0 45 -2 12 -4 2 -4 -23z"/>
<path d="M1617 3562 c-3 -4 -1 -16 4 -27 6 -16 8 -16 8 -3 1 9 6 18 13 20 8 3
6 7 -5 11 -9 3 -18 3 -20 -1z"/>
<path d="M777 3553 c-3 -5 5 -8 18 -8 13 0 21 3 18 8 -2 4 -10 7 -18 7 -8 0
-16 -3 -18 -7z"/>
<path d="M842 3530 c0 -19 2 -27 5 -17 2 9 2 25 0 35 -3 9 -5 1 -5 -18z"/>
<path d="M879 3528 c4 -28 6 -29 9 -9 2 13 0 27 -5 32 -6 6 -7 -3 -4 -23z"/>
<path d="M986 3553 c7 -4 14 -17 17 -28 5 -16 5 -15 4 4 -1 14 -9 26 -17 28
-10 3 -11 2 -4 -4z"/>
<path d="M1126 3553 c7 -4 14 -19 17 -33 4 -22 5 -21 4 4 -1 17 -9 31 -17 33
-10 3 -11 2 -4 -4z"/>
<path d="M1442 3530 c0 -19 2 -27 5 -17 2 9 2 25 0 35 -3 9 -5 1 -5 -18z"/>
<path d="M1479 3528 c4 -28 6 -29 9 -9 2 13 0 27 -5 32 -6 6 -7 -3 -4 -23z"/>
<path d="M1589 3528 c4 -28 6 -29 9 -9 2 13 0 27 -5 32 -6 6 -7 -3 -4 -23z"/>
<path d="M1772 3530 c0 -19 2 -27 5 -17 2 9 2 25 0 35 -3 9 -5 1 -5 -18z"/>
<path d="M1796 3553 c7 -4 14 -19 17 -33 4 -22 5 -21 4 4 -1 17 -9 31 -17 33
-10 3 -11 2 -4 -4z"/>
<path d="M3078 3533 c5 -21 7 -23 10 -9 2 10 0 22 -6 28 -6 6 -7 0 -4 -19z"/>
<path d="M3248 3553 c7 -3 16 -2 19 1 4 3 -2 6 -13 5 -11 0 -14 -3 -6 -6z"/>
<path d="M3292 3530 c0 -19 2 -27 5 -17 2 9 2 25 0 35 -3 9 -5 1 -5 -18z"/>
<path d="M3327 3553 c-3 -5 5 -8 18 -8 13 0 21 3 18 8 -2 4 -10 7 -18 7 -8 0
-16 -3 -18 -7z"/>
<path d="M3392 3530 c0 -19 2 -27 5 -17 2 9 2 25 0 35 -3 9 -5 1 -5 -18z"/>
<path d="M3501 3553 c0 -5 14 -19 32 -32 l32 -25 -29 32 c-31 33 -36 37 -35
25z"/>
<path d="M3601 3544 c0 -11 3 -14 6 -6 3 7 2 16 -1 19 -3 4 -6 -2 -5 -13z"/>
<path d="M3790 3556 c0 -2 7 -7 16 -10 8 -3 12 -2 9 4 -6 10 -25 14 -25 6z"/>
<path d="M3883 3520 c0 -25 2 -35 4 -22 2 12 2 32 0 45 -2 12 -4 2 -4 -23z"/>
<path d="M3900 3556 c0 -2 7 -7 16 -10 8 -3 12 -2 9 4 -6 10 -25 14 -25 6z"/>
<path d="M3982 3530 c0 -19 2 -27 5 -17 2 9 2 25 0 35 -3 9 -5 1 -5 -18z"/>
<path d="M4049 3528 c4 -28 6 -29 9 -9 2 13 0 27 -5 32 -6 6 -7 -3 -4 -23z"/>
<path d="M4082 3530 c0 -19 2 -27 5 -17 2 9 2 25 0 35 -3 9 -5 1 -5 -18z"/>
<path d="M4106 3553 c7 -4 14 -19 17 -33 4 -22 5 -21 4 4 -1 17 -9 31 -17 33
-10 3 -11 2 -4 -4z"/>
<path d="M4256 3547 c3 -10 9 -15 12 -12 3 3 0 11 -7 18 -10 9 -11 8 -5 -6z"/>
<path d="M1321 3534 c0 -11 3 -14 6 -6 3 7 2 16 -1 19 -3 4 -6 -2 -5 -13z"/>
<path d="M1741 3534 c0 -11 3 -14 6 -6 3 7 2 16 -1 19 -3 4 -6 -2 -5 -13z"/>
<path d="M3127 3533 c3 -7 6 -13 8 -13 2 0 5 6 8 13 3 8 -1 14 -8 14 -7 0 -11
-6 -8 -14z"/>
<path d="M3212 3530 c0 -14 2 -19 5 -12 2 6 2 18 0 25 -3 6 -5 1 -5 -13z"/>
<path d="M3691 3534 c0 -11 3 -14 6 -6 3 7 2 16 -1 19 -3 4 -6 -2 -5 -13z"/>
<path d="M4151 3534 c0 -11 3 -14 6 -6 3 7 2 16 -1 19 -3 4 -6 -2 -5 -13z"/>
<path d="M1180 3505 c0 -8 2 -15 4 -15 2 0 6 7 10 15 3 8 1 15 -4 15 -6 0 -10
-7 -10 -15z"/>
<path d="M3327 3509 c7 -7 15 -10 18 -7 3 3 -2 9 -12 12 -14 6 -15 5 -6 -5z"/>
<path d="M3910 3510 c-9 -6 -10 -10 -3 -10 6 0 15 5 18 10 8 12 4 12 -15 0z"/>
<path d="M4180 3510 c-9 -6 -10 -10 -3 -10 6 0 15 5 18 10 8 12 4 12 -15 0z"/>
<path d="M4227 3509 c7 -7 15 -10 18 -7 3 3 -2 9 -12 12 -14 6 -15 5 -6 -5z"/>
<path d="M1451 3285 c-38 -17 -53 -19 -31 -5 10 7 -11 10 -67 10 l-83 0 0 -31
c0 -33 9 -35 65 -14 11 4 6 -2 -12 -13 -41 -27 -53 -50 -53 -106 l0 -46 -260
0 -260 0 0 -29 c0 -16 6 -31 15 -35 8 -3 15 -15 15 -26 0 -20 5 -20 248 -20
l247 0 18 -51 c17 -46 26 -55 95 -99 99 -64 118 -68 188 -36 134 61 164 110
172 282 6 137 5 139 -134 195 -109 43 -115 44 -163 24z m-61 -25 c-8 -5 -19
-10 -25 -10 -5 0 -3 5 5 10 8 5 20 10 25 10 6 0 3 -5 -5 -10z m220 -46 c59
-24 91 -42 95 -55 10 -30 -5 -179 -21 -227 -13 -36 -26 -48 -83 -82 -37 -22
-76 -40 -87 -40 -28 0 -135 62 -157 91 -26 35 -36 90 -37 186 0 55 4 85 12 90
20 13 162 71 175 72 7 1 53 -15 103 -35z"/>
<path d="M3910 2832 c0 -5 7 -32 16 -61 11 -38 12 -57 5 -64 -6 -6 -11 -21
-11 -34 0 -13 -10 -29 -24 -38 -42 -28 -56 -73 -56 -178 0 -87 -2 -96 -20
-102 -33 -10 -44 -42 -25 -71 15 -24 16 -24 193 -24 125 0 182 4 190 12 20 20
14 56 -13 74 -24 15 -25 21 -25 111 0 99 -6 120 -49 168 -43 48 -54 92 -36
151 8 27 15 52 15 57 0 13 -43 7 -62 -10 -17 -15 -19 -15 -36 0 -19 18 -62 23
-62 9z"/>
<path d="M1383 2483 c9 -2 25 -2 35 0 9 3 1 5 -18 5 -19 0 -27 -2 -17 -5z"/>
<path d="M1463 2483 c9 -2 25 -2 35 0 9 3 1 5 -18 5 -19 0 -27 -2 -17 -5z"/>
<path d="M763 2353 c-7 -3 -13 -18 -13 -34 l0 -29 500 0 500 0 0 30 0 30 -212
2 c-646 4 -764 4 -775 1z"/>
<path d="M2555 1865 c-5 -2 -23 -6 -38 -9 -20 -5 -33 -17 -43 -41 -18 -44 -61
-672 -47 -686 6 -6 16 83 27 243 28 401 32 430 57 451 20 16 85 17 1046 17
l1024 0 24 -25 c30 -29 30 -6 5 -384 -11 -168 -17 -307 -15 -310 3 -2 8 -2 11
2 7 7 43 523 44 618 0 80 -16 106 -75 119 -36 9 -1995 13 -2020 5z"/>
<path d="M632 1613 c-2 -41 -1 -43 26 -42 22 1 23 2 5 6 -17 3 -23 13 -26 41
l-4 37 -1 -42z"/>
<path d="M913 1610 c0 -25 2 -35 4 -22 2 12 2 32 0 45 -2 12 -4 2 -4 -23z"/>
<path d="M962 1613 c-2 -39 0 -43 21 -42 16 1 17 3 5 6 -11 3 -18 17 -21 41
l-4 37 -1 -42z"/>
<path d="M1518 1635 c-6 -7 2 -54 11 -59 7 -5 7 52 -1 59 -2 3 -7 3 -10 0z"/>
<path d="M1627 1634 c-9 -9 9 -58 21 -60 7 -1 8 0 2 3 -14 7 -13 40 2 45 8 3
6 6 -4 10 -9 4 -18 4 -21 2z"/>
<path d="M810 1593 c-3 -23 -2 -39 3 -34 5 5 7 24 5 42 -3 33 -4 33 -8 -8z"/>
<path d="M1190 1606 c0 -14 4 -27 8 -30 5 -3 6 8 4 25 -5 35 -12 38 -12 5z"/>
<path d="M1232 1600 c0 -19 2 -27 5 -17 2 9 2 25 0 35 -3 9 -5 1 -5 -18z"/>
<path d="M1262 1600 c0 -19 2 -27 5 -17 2 9 2 25 0 35 -3 9 -5 1 -5 -18z"/>
<path d="M1299 1598 c4 -28 6 -29 9 -9 2 13 0 27 -5 32 -6 6 -7 -3 -4 -23z"/>
<path d="M1442 1600 c0 -19 2 -27 5 -17 2 9 2 25 0 35 -3 9 -5 1 -5 -18z"/>
<path d="M1599 1598 c4 -28 6 -29 9 -9 2 13 0 27 -5 32 -6 6 -7 -3 -4 -23z"/>
<path d="M1806 1623 c7 -4 14 -19 17 -33 4 -22 5 -21 4 4 -1 17 -9 31 -17 33
-10 3 -11 2 -4 -4z"/>
<path d="M3047 1624 c-9 -9 9 -58 21 -60 7 -1 8 0 2 3 -14 7 -13 40 2 45 8 3
6 6 -4 10 -9 4 -18 4 -21 2z"/>
<path d="M3208 1625 c-6 -7 2 -54 11 -59 7 -5 7 52 -1 59 -2 3 -7 3 -10 0z"/>
<path d="M1052 1600 c0 -14 2 -19 5 -12 2 6 2 18 0 25 -3 6 -5 1 -5 -13z"/>
<path d="M3286 1607 c3 -10 9 -15 12 -12 3 3 0 11 -7 18 -10 9 -11 8 -5 -6z"/>
<path d="M3325 1610 c-3 -6 1 -7 9 -4 18 7 21 14 7 14 -6 0 -13 -4 -16 -10z"/>
<path d="M3562 1590 c0 -19 2 -27 5 -17 2 9 2 25 0 35 -3 9 -5 1 -5 -18z"/>
<path d="M3590 1596 c0 -14 4 -27 8 -30 5 -3 6 8 4 25 -5 35 -12 38 -12 5z"/>
<path d="M3632 1590 c0 -19 2 -27 5 -17 2 9 2 25 0 35 -3 9 -5 1 -5 -18z"/>
<path d="M3662 1590 c0 -19 2 -27 5 -17 2 9 2 25 0 35 -3 9 -5 1 -5 -18z"/>
<path d="M3695 1610 c-3 -6 1 -7 9 -4 18 7 21 14 7 14 -6 0 -13 -4 -16 -10z"/>
<path d="M3799 1588 c4 -28 6 -29 9 -9 2 13 0 27 -5 32 -6 6 -7 -3 -4 -23z"/>
<path d="M3832 1590 c0 -19 2 -27 5 -17 2 9 2 25 0 35 -3 9 -5 1 -5 -18z"/>
<path d="M3974 1605 c-3 -8 -4 -20 -2 -27 3 -7 7 -1 10 15 6 29 1 36 -8 12z"/>
<path d="M4006 1607 c3 -10 9 -15 12 -12 3 3 0 11 -7 18 -10 9 -11 8 -5 -6z"/>
<path d="M882 1590 c0 -14 2 -19 5 -12 2 6 2 18 0 25 -3 6 -5 1 -5 -13z"/>
<path d="M840 1591 c0 -6 4 -13 10 -16 6 -3 7 1 4 9 -7 18 -14 21 -14 7z"/>
<path d="M1080 1580 c-9 -6 -10 -10 -3 -10 6 0 15 5 18 10 8 12 4 12 -15 0z"/>
<path d="M1150 1580 c-9 -6 -10 -10 -3 -10 6 0 15 5 18 10 8 12 4 12 -15 0z"/>
<path d="M3140 1581 c0 -6 4 -13 10 -16 6 -3 7 1 4 9 -7 18 -14 21 -14 7z"/>
<path d="M3362 1570 c0 -14 2 -19 5 -12 2 6 2 18 0 25 -3 6 -5 1 -5 -13z"/>
<path d="M3697 1569 c7 -7 15 -10 18 -7 3 3 -2 9 -12 12 -14 6 -15 5 -6 -5z"/>
<path d="M3767 1569 c7 -7 15 -10 18 -7 3 3 -2 9 -12 12 -14 6 -15 5 -6 -5z"/>
<path d="M3368 1363 c-15 -10 -32 -30 -37 -45 -9 -26 -14 -28 -60 -28 -71 0
-81 -14 -81 -110 0 -111 -2 -110 220 -110 223 0 220 -2 220 114 0 50 -5 87
-12 94 -7 7 -36 12 -65 12 -47 0 -55 3 -63 24 -10 28 -56 66 -79 66 -9 0 -28
-8 -43 -17z m62 -67 c0 -15 -24 -28 -34 -19 -13 14 -5 33 14 33 11 0 20 -6 20
-14z"/>
<path d="M3929 1176 c13 -16 5 -27 -95 -127 -65 -65 -119 -111 -131 -112 -12
0 -24 -10 -27 -21 -7 -27 -5 -28 40 -13 29 9 68 42 151 128 l113 115 -33 24
c-20 15 -27 17 -18 6z"/>
<path d="M1307 966 c-3 -7 -1 -18 5 -24 14 -14 -6 -40 -41 -53 -30 -12 -29
-13 96 -87 l101 -60 4 47 c3 36 0 49 -14 59 -10 7 -16 18 -13 23 3 5 0 6 -8 3
-20 -7 -59 28 -48 45 7 11 13 10 35 -4 14 -10 26 -15 26 -12 0 8 -113 77 -126
77 -7 0 -14 -6 -17 -14z"/>
<path d="M3183 953 c-6 -14 -7 -45 -4 -98 1 -22 116 -21 125 1 10 27 7 89 -6
102 -19 19 -107 15 -115 -5z"/>
<path d="M3526 771 c-4 -5 3 -7 14 -4 23 6 26 13 6 13 -8 0 -17 -4 -20 -9z"/>
<path d="M3620 756 c0 -36 -62 -101 -88 -91 -12 4 -14 3 -6 -5 6 -6 33 -10 60
-8 l49 3 3 54 c2 30 -2 59 -7 64 -8 8 -11 3 -11 -17z"/>
<path d="M3965 690 c-38 -38 -66 -70 -61 -70 5 0 1 -9 -8 -19 -15 -16 -16 -23
-5 -43 14 -25 30 -110 19 -103 -3 2 -14 -12 -25 -30 -24 -45 -92 -80 -139 -71
-126 24 -158 203 -47 261 37 19 111 20 136 1 17 -12 21 -11 38 11 11 13 18 25
16 27 -18 15 -128 46 -152 42 -91 -14 -167 -105 -167 -200 1 -179 194 -269
327 -153 73 64 92 157 49 242 l-25 48 43 -6 c41 -6 44 -4 94 46 l52 53 -35 17
c-20 9 -37 17 -38 17 -1 0 -34 -31 -72 -70z"/>
<path d="M1163 709 c8 -39 -4 -64 -30 -64 -33 0 -26 -32 12 -54 43 -25 45 -25
45 -6 0 22 26 18 74 -10 43 -25 43 -25 61 -5 10 11 24 20 31 20 37 0 14 24
-79 81 -56 34 -106 64 -111 67 -5 3 -6 -10 -3 -29z"/>
<path d="M1432 673 c-22 -34 -28 -51 -21 -60 6 -6 17 -9 25 -6 8 3 20 0 27 -5
15 -13 42 1 33 17 -4 6 0 14 8 17 9 3 16 13 16 20 0 23 -29 28 -49 10 -26 -24
-36 -3 -15 29 9 14 14 25 11 25 -2 0 -18 -21 -35 -47z"/>
<path d="M1531 614 c0 -11 3 -14 6 -6 3 7 2 16 -1 19 -3 4 -6 -2 -5 -13z"/>
<path d="M3366 602 c-2 -4 14 -6 37 -4 68 5 76 10 20 11 -28 0 -54 -2 -57 -7z"/>
<path d="M3213 592 c-18 -2 -34 -9 -34 -15 -10 -101 -2 -117 59 -117 27 0 53
5 60 12 13 13 16 86 4 104 -9 13 -46 20 -89 16z"/>
<path d="M1541 586 c2 -2 15 -9 29 -15 24 -11 24 -11 6 3 -16 13 -49 24 -35
12z"/>
<path d="M3824 568 l-19 -23 23 19 c12 11 22 21 22 23 0 8 -8 2 -26 -19z"/>
<path d="M1220 551 c24 -20 40 -26 40 -16 0 2 -15 12 -32 20 l-33 16 25 -20z"/>
<path d="M3724 534 c-43 -42 -15 -104 46 -104 36 0 60 29 60 70 l0 34 -35 -34
c-31 -30 -35 -31 -41 -15 -5 13 0 25 19 41 14 12 23 25 20 28 -14 13 -45 5
-69 -20z"/>
<path d="M3526 523 c-6 -14 -5 -15 5 -6 7 7 10 15 7 18 -3 3 -9 -2 -12 -12z"/>
<path d="M1093 493 c-7 -2 -13 -11 -13 -19 0 -8 -11 -19 -24 -24 -27 -10 -43
-61 -32 -104 4 -18 1 -25 -14 -29 -38 -10 -20 -25 43 -36 95 -16 151 -12 148
13 -3 23 6 26 72 26 62 0 79 4 125 31 46 26 53 34 50 57 -2 16 -12 31 -25 37
-13 5 -23 12 -23 15 0 3 -45 4 -100 2 -95 -3 -100 -2 -100 17 0 18 -6 21 -47
20 -27 0 -54 -3 -60 -6z m260 -107 c-2 -4 -34 -8 -73 -8 -95 1 -92 1 -85 12 8
13 161 9 158 -4z"/>
<path d="M3450 460 c-11 -7 0 -10 38 -10 28 0 52 5 52 10 0 13 -70 13 -90 0z"/>
</g>
</svg>
