<svg width="402" height="365" viewBox="0 0 402 365" fill="none" xmlns="http://www.w3.org/2000/svg">
<path d="M358.56 204.324C375.056 198.315 393.214 206.78 399.216 223.293C405.218 239.73 396.724 257.982 380.266 263.99C363.845 269.998 345.649 261.458 339.647 245.02C337.307 238.634 337.156 231.946 338.817 225.862L351.916 232.173C353.388 232.891 355.011 232.966 356.446 232.437C357.842 231.946 359.05 230.888 359.73 229.452C361.127 226.58 359.956 223.066 357.012 221.63L343.875 215.282C347.461 210.445 352.482 206.591 358.522 204.361L358.56 204.324Z" fill="#FFC100"/>
<path style="mix-blend-mode:screen" d="M377.699 221.29C381.058 230.586 376.302 240.826 367.016 244.189C357.729 247.552 347.499 242.791 344.139 233.495C340.78 224.2 345.536 213.959 354.822 210.596C364.071 207.233 374.339 211.994 377.699 221.29Z" fill="url(#paint0_linear_2012_66)"/>
<path d="M342.29 112.425C358.333 106.568 376.038 114.843 381.889 130.903C387.74 146.963 379.473 164.723 363.429 170.58C350.746 175.19 337.005 170.957 328.889 161.133L355.615 146.698C358.446 145.149 359.541 141.559 357.993 138.725C356.446 135.853 352.935 134.833 350.066 136.382L323.34 150.817C318.395 135.097 326.662 118.131 342.29 112.463V112.425Z" fill="#09B1BD"/>
<path style="mix-blend-mode:screen" d="M366.94 127.162C370.715 137.516 365.355 149.003 355.011 152.782C344.668 156.561 333.192 151.195 329.417 140.841C325.642 130.45 330.965 119 341.346 115.221C351.689 111.443 363.165 116.808 366.94 127.162Z" fill="url(#paint1_linear_2012_66)"/>
<path d="M181.667 271.32C194.124 271.812 205.638 279.709 210.167 292.179C216.132 308.616 207.638 326.868 191.217 332.876C175.665 338.544 158.602 331.289 151.656 316.59L162.113 313.869C162.301 313.869 162.452 313.793 162.641 313.718C165.472 312.697 167.096 309.674 166.303 306.727C165.472 303.553 162.264 301.701 159.168 302.533L148.712 305.253C147.73 291.461 155.884 278.16 169.511 273.21C169.7 273.134 169.927 273.059 170.115 272.983C173.966 271.661 177.854 271.169 181.667 271.32Z" fill="#ED0047"/>
<path style="mix-blend-mode:screen" d="M186.725 290.856C190.123 300.19 185.328 310.506 175.967 313.944C166.643 317.345 156.299 312.509 152.902 303.175C149.504 293.842 154.299 283.488 163.66 280.087C172.984 276.686 183.328 281.485 186.725 290.856Z" fill="url(#paint2_linear_2012_66)"/>
<path d="M302.427 208.178C297.972 214.64 291.555 219.854 283.627 222.726C264.451 229.717 243.274 220.686 234.893 202.359L253.617 196.993C253.617 196.993 253.881 196.88 253.994 196.842C256.863 195.784 258.486 192.723 257.656 189.738C256.75 186.601 253.504 184.788 250.37 185.732L231.685 191.098C230.59 182.483 232.402 173.867 236.63 166.612C238.555 163.211 241.009 160.113 243.953 157.467C247.615 154.029 251.994 151.27 257.052 149.457C260.525 148.21 264.036 147.454 267.584 147.189C271.548 146.925 275.511 147.189 279.286 148.134C288.006 150.175 295.934 155.2 301.483 162.607C303.786 165.592 305.635 168.993 306.994 172.734C306.994 172.809 307.032 172.847 307.07 172.922C310.014 181.16 310.014 189.813 307.636 197.598C306.466 201.338 304.729 204.89 302.54 208.14L302.427 208.178Z" fill="#ED0047"/>
<path style="mix-blend-mode:screen" d="M285.024 170.466C289.705 183.314 283.061 197.522 270.226 202.208C257.392 206.893 243.198 200.243 238.517 187.395C233.836 174.547 240.48 160.339 253.277 155.654C266.112 150.968 280.306 157.581 284.986 170.429L285.024 170.466Z" fill="url(#paint3_linear_2012_66)"/>
<path d="M78.1584 125.688C98.392 118.32 120.74 128.787 128.101 149.003C131.687 158.903 131.007 169.257 127.119 178.137C125.496 181.727 123.42 185.09 120.777 188.037C116.625 192.799 111.227 196.653 104.847 198.958C95.1078 202.51 84.9533 201.943 76.1199 198.164L83.632 186.11C85.3308 183.352 84.5003 179.724 81.7823 178.024C79.0266 176.323 75.4027 177.192 73.704 179.913L66.1919 191.967C61.2468 187.773 57.3586 182.256 54.9804 175.719C47.6193 155.465 58.0003 133.095 78.2339 125.726L78.1584 125.688Z" fill="#FFC100"/>
<path d="M267.244 56.7645C283.665 50.7941 301.898 59.2962 307.9 75.7337C313.902 92.2467 305.371 110.422 288.95 116.431C286.496 117.337 284.005 117.904 281.513 118.169L282.646 103.696C282.872 100.447 280.494 97.6125 277.248 97.3858C274.039 97.1213 271.208 99.5396 270.981 102.752L269.849 117.262C260.223 114.655 251.994 107.551 248.294 97.4614C242.292 80.9861 250.786 62.7727 267.244 56.7645Z" fill="#ED0047"/>
<path style="mix-blend-mode:screen" d="M285.402 74.5623C288.799 83.8958 284.005 94.2495 274.643 97.6503C265.319 101.051 254.976 96.2144 251.578 86.8809C248.181 77.5475 252.975 67.1938 262.337 63.7929C271.661 60.3921 282.004 65.2289 285.402 74.5623Z" fill="url(#paint4_linear_2012_66)"/>
<path style="mix-blend-mode:screen" d="M110.698 147.605C115.757 161.511 108.584 176.89 94.6926 181.991C80.8009 187.055 65.3992 179.875 60.3408 165.97C55.2824 152.064 62.4547 136.647 76.3464 131.583C90.2382 126.52 105.64 133.699 110.698 147.605Z" fill="url(#paint5_linear_2012_66)"/>
<path d="M328.889 161.133L306.994 172.922C306.994 172.922 306.956 172.809 306.919 172.771C305.56 169.03 303.71 165.629 301.407 162.644L323.34 150.817L350.066 136.382C352.897 134.833 356.446 135.891 357.993 138.725C359.541 141.559 358.446 145.149 355.615 146.698L328.889 161.133Z" fill="url(#paint6_linear_2012_66)"/>
<g style="mix-blend-mode:multiply">
<path d="M306.013 160.113L301.407 162.569C303.71 165.592 305.56 168.993 306.919 172.733C306.919 172.809 306.956 172.847 306.994 172.922L313.336 169.484C311.939 165.856 309.637 162.644 306.013 160.113Z" fill="#B8B8B8"/>
</g>
<path d="M199.107 212.637C200.428 226.58 192.274 240.259 178.458 245.285C178.269 245.361 178.118 245.398 177.93 245.436C174.079 246.796 170.153 247.363 166.341 247.174C154.676 246.721 143.842 239.73 138.897 228.583L156.526 224.313C156.752 224.275 156.941 224.2 157.168 224.124C159.923 223.142 161.546 220.156 160.867 217.247C160.074 214.073 156.941 212.146 153.808 212.901L136.141 217.171C135.839 211.239 137.236 205.419 140.029 200.356C141.917 196.88 144.446 193.781 147.579 191.249C150.259 188.982 153.393 187.168 156.903 185.883C160.187 184.674 163.472 184.07 166.794 183.994C170.795 183.881 174.645 184.485 178.345 185.846C185.744 188.491 192.161 193.894 195.86 201.338H195.898C196.427 202.434 196.917 203.568 197.333 204.739C198.276 207.309 198.843 209.954 199.107 212.599V212.637Z" fill="#FFC100"/>
<path style="mix-blend-mode:screen" d="M174.683 202.925C178.043 212.183 173.286 222.461 164 225.825C154.752 229.188 144.484 224.426 141.124 215.131C137.764 205.835 142.521 195.595 151.807 192.232C161.093 188.869 171.324 193.63 174.683 202.925Z" fill="url(#paint7_linear_2012_66)"/>
<path d="M343.913 215.244L357.05 221.592C359.994 223.028 361.164 226.543 359.768 229.414C359.088 230.85 357.88 231.908 356.483 232.4C355.049 232.929 353.426 232.853 351.953 232.135L338.855 225.825L302.464 208.178C304.654 204.928 306.39 201.376 307.56 197.635L343.951 215.244H343.913Z" fill="url(#paint8_linear_2012_66)"/>
<g style="mix-blend-mode:multiply">
<path d="M307.523 197.598C306.352 201.338 304.616 204.89 302.427 208.14L310.543 212.07C313.449 209.312 315.827 206.062 317.564 202.434L307.56 197.598H307.523Z" fill="#B8B8B8"/>
</g>
<path d="M187.14 83.0644C199.447 84.4625 210.545 92.6246 215.037 105.094C218.472 114.579 217.415 124.555 212.961 132.792C211.073 136.231 208.62 139.33 205.6 141.975C202.58 144.695 198.918 146.925 194.841 148.399C191.217 149.721 187.518 150.363 183.894 150.439L186.046 136.722C186.536 133.51 184.385 130.525 181.176 129.996C177.967 129.505 174.985 131.659 174.457 134.871L172.305 148.587C163.019 145.413 155.205 138.196 151.581 128.22C145.201 110.687 154.223 91.302 171.739 84.916C172.947 84.4625 174.155 84.1224 175.363 83.8201C179.289 82.8755 183.252 82.6487 187.065 83.1022L187.14 83.0644Z" fill="#09B1BD"/>
<path style="mix-blend-mode:screen" d="M193.596 103.243C197.597 114.239 191.935 126.406 180.95 130.412C169.965 134.417 157.809 128.749 153.808 117.753C149.806 106.757 155.469 94.5894 166.454 90.584C177.439 86.5785 189.594 92.2466 193.596 103.243Z" fill="url(#paint9_linear_2012_66)"/>
<path d="M159.206 302.495C162.301 301.664 165.51 303.515 166.341 306.689C167.133 309.637 165.51 312.66 162.679 313.68C162.49 313.755 162.339 313.793 162.15 313.831L151.694 316.552L113.492 326.565C113.227 323.58 112.586 320.557 111.529 317.61C111.227 316.778 110.887 315.985 110.509 315.191L148.749 305.216L159.206 302.495Z" fill="url(#paint10_linear_2012_66)"/>
<g style="mix-blend-mode:multiply">
<path d="M118.399 313.151L110.472 315.229C110.849 316.023 111.189 316.816 111.491 317.648C112.548 320.595 113.19 323.618 113.454 326.603L122.25 324.298C121.646 320.444 120.362 316.741 118.399 313.189V313.151Z" fill="#B8B8B8"/>
</g>
<path d="M177.967 245.436L181.667 271.283C177.816 271.132 173.928 271.623 170.116 272.945L166.378 247.137C170.191 247.326 174.155 246.759 177.967 245.398V245.436Z" fill="url(#paint11_linear_2012_66)"/>
<g style="mix-blend-mode:multiply">
<path d="M177.967 245.436C174.117 246.796 170.191 247.363 166.378 247.174L167.36 254.014C171.361 254.732 175.325 254.543 179.138 253.598L177.967 245.474V245.436Z" fill="#B8B8B8"/>
</g>
<path d="M250.333 185.732C253.428 184.788 256.675 186.639 257.618 189.738C258.449 192.723 256.825 195.821 253.957 196.842C253.843 196.842 253.692 196.917 253.579 196.993L234.855 202.359L199.069 212.637C198.843 210.029 198.239 207.384 197.295 204.777C196.88 203.606 196.351 202.434 195.861 201.338L231.609 191.06L250.295 185.694L250.333 185.732Z" fill="url(#paint12_linear_2012_66)"/>
<g style="mix-blend-mode:multiply">
<path d="M204.279 198.958L195.898 201.376C196.427 202.472 196.917 203.606 197.333 204.815C198.276 207.384 198.843 210.03 199.107 212.675L209.299 209.765C208.695 205.76 207.185 201.981 204.279 199.033V198.958Z" fill="#B8B8B8"/>
</g>
<path d="M277.248 97.3858C280.494 97.6125 282.872 100.447 282.646 103.696L281.513 118.169L279.211 148.134C275.436 147.227 271.51 146.925 267.509 147.189L269.849 117.262L270.981 102.752C271.208 99.5396 274.039 97.1212 277.248 97.3858Z" fill="url(#paint13_linear_2012_66)"/>
<g style="mix-blend-mode:multiply">
<path d="M267.509 147.189C271.472 146.925 275.436 147.189 279.211 148.134L279.664 142.201C275.738 141.559 271.661 141.672 267.886 142.617L267.509 147.227V147.189Z" fill="#B8B8B8"/>
</g>
<path d="M243.877 157.43C240.933 160.113 238.479 163.211 236.554 166.612L205.638 141.937C208.62 139.292 211.111 136.193 212.999 132.755L243.877 157.392V157.43Z" fill="url(#paint14_linear_2012_66)"/>
<g style="mix-blend-mode:multiply">
<path d="M212.999 132.792C211.111 136.231 208.657 139.33 205.638 141.975L210.054 145.489C213.187 142.957 215.679 139.934 217.642 136.496L212.999 132.792Z" fill="#B8B8B8"/>
</g>
<path d="M178.383 35.8304C181.591 35.6036 184.385 38.0976 184.573 41.3095L185.291 53.0235L187.14 83.0644C183.328 82.611 179.364 82.8377 175.438 83.7824L173.626 53.7415L172.909 42.0275C172.682 38.8155 175.136 36.0193 178.383 35.8304Z" fill="url(#paint15_linear_2012_66)"/>
<g style="mix-blend-mode:multiply">
<path d="M175.136 78.7567L175.438 83.7446C179.364 82.8 183.328 82.5732 187.14 83.0267L186.65 75.1292C182.762 75.6204 178.836 76.8296 175.136 78.7567Z" fill="#B8B8B8"/>
</g>
<path d="M181.252 129.958C184.422 130.45 186.612 133.473 186.121 136.685L183.97 150.401L178.383 185.921C174.683 184.561 170.795 183.919 166.831 184.07L172.456 148.588L174.608 134.871C175.098 131.697 178.118 129.505 181.327 129.996L181.252 129.958Z" fill="url(#paint16_linear_2012_66)"/>
<g style="mix-blend-mode:multiply">
<path d="M167.398 180.178L166.794 184.032C170.795 183.919 174.645 184.523 178.345 185.884L179.817 176.588C175.665 175.492 171.361 176.323 167.398 180.178Z" fill="#B8B8B8"/>
</g>
<path d="M127.081 178.137L147.579 191.287C144.484 193.819 141.955 196.917 140.029 200.394L120.74 188.037C123.344 185.09 125.458 181.727 127.081 178.137Z" fill="url(#paint17_linear_2012_66)"/>
<g style="mix-blend-mode:multiply">
<path d="M127.081 178.137C125.458 181.727 123.382 185.09 120.74 188.037L124.061 190.153C127.497 187.924 130.517 185.166 133.084 181.991L127.081 178.137Z" fill="#B8B8B8"/>
</g>
<path d="M153.808 212.939C156.941 212.183 160.074 214.11 160.867 217.285C161.546 220.194 159.923 223.142 157.168 224.162C156.941 224.237 156.752 224.313 156.526 224.351L138.897 228.621L77.7432 243.358C77.4412 240.033 76.7239 236.669 75.516 233.344C75.3272 232.853 75.1762 232.399 74.9875 231.946L136.141 217.209L153.808 212.939Z" fill="url(#paint18_linear_2012_66)"/>
<g style="mix-blend-mode:multiply">
<path d="M79.9704 230.737L74.9875 231.946C75.1762 232.362 75.365 232.853 75.516 233.344C76.724 236.67 77.4412 239.995 77.7432 243.358L82.9148 242.111C83.3678 238.219 82.8016 234.402 79.9326 230.775L79.9704 230.737Z" fill="#B8B8B8"/>
</g>
<path d="M81.7446 177.986C84.4625 179.686 85.293 183.352 83.5943 186.072L76.0822 198.127L64.2667 217.058C61.2845 214.451 57.9248 212.372 54.3387 210.861L66.1542 191.892L73.6663 179.837C75.4027 177.117 79.0266 176.248 81.7446 177.948V177.986Z" fill="url(#paint19_linear_2012_66)"/>
<g style="mix-blend-mode:multiply">
<path d="M54.3387 210.899C57.9248 212.41 61.2845 214.488 64.2667 217.096L68.9099 209.689C64.9084 208.027 60.4918 207.422 56.0751 208.102L54.3387 210.899Z" fill="#B8B8B8"/>
</g>
<path d="M110.472 315.229C110.849 316.023 111.189 316.816 111.491 317.648C112.548 320.595 113.19 323.618 113.454 326.603C114.813 341.945 105.791 356.946 90.6156 362.463C72.496 369.076 52.4134 359.705 45.8073 341.605C39.2012 323.467 48.563 303.364 66.6826 296.751C83.934 290.479 102.997 298.716 110.434 315.267L110.472 315.229Z" fill="#09B1BD"/>
<path style="mix-blend-mode:screen" d="M88.162 319.575C92.1634 330.571 86.501 342.738 75.516 346.744C64.5309 350.749 52.3757 345.081 48.3743 334.085C44.3728 323.089 50.0352 310.921 61.0203 306.916C72.0053 302.911 84.1605 308.579 88.162 319.575Z" fill="url(#paint20_linear_2012_66)"/>
<path d="M168.606 1.63291C182.573 -3.46837 198.088 3.78678 203.184 17.7681C208.28 31.7871 201.07 47.3177 187.065 52.4189C186.461 52.6457 185.895 52.7968 185.291 52.9858L184.573 41.2717C184.385 38.0598 181.591 35.5658 178.383 35.7926C175.136 35.9815 172.682 38.7778 172.909 41.9897L173.626 53.7037H173.588C164.227 52.23 155.922 45.844 152.449 36.246C147.353 22.2647 154.601 6.6964 168.606 1.59512V1.63291Z" fill="#FFC100"/>
<path style="mix-blend-mode:screen" d="M184.234 16.1432C187.178 24.3053 182.988 33.2986 174.872 36.2838C166.718 39.269 157.734 35.0368 154.752 26.9126C151.807 18.7505 155.997 9.75717 164.113 6.77198C172.267 3.78679 181.252 8.01896 184.234 16.1432Z" fill="url(#paint21_linear_2012_66)"/>
<path d="M77.7809 243.358C79.2531 260.513 69.1741 277.177 52.2624 283.337C32.0666 290.705 9.71907 280.276 2.35797 260.022C-5.00313 239.768 5.4534 217.398 25.6115 210.067C35.3508 206.515 45.5053 207.082 54.3387 210.899C57.9248 212.41 61.2845 214.488 64.2667 217.096C68.8344 220.988 72.5715 226.013 74.9875 231.946C75.1762 232.362 75.365 232.853 75.516 233.344C76.7239 236.669 77.4412 239.995 77.7432 243.358H77.7809Z" fill="#ED0047"/>
<path style="mix-blend-mode:screen" d="M53.8102 233.231C58.4911 246.079 51.8472 260.287 39.0125 264.972C26.1777 269.658 11.984 263.045 7.30312 250.16C2.62222 237.312 9.22833 223.104 22.0631 218.418C34.8978 213.733 49.0915 220.345 53.7724 233.193L53.8102 233.231Z" fill="url(#paint22_linear_2012_66)"/>
<mask id="mask0_2012_66" style="mask-type:luminance" maskUnits="userSpaceOnUse" x="136" y="183" width="64" height="65">
<path d="M199.107 212.637C200.428 226.58 192.274 240.259 178.458 245.285C178.269 245.361 178.118 245.398 177.93 245.436C174.079 246.796 170.153 247.363 166.341 247.174C154.676 246.721 143.842 239.73 138.897 228.583L156.526 224.313C156.752 224.275 156.941 224.2 157.168 224.124C159.923 223.142 161.546 220.156 160.867 217.247C160.074 214.073 156.941 212.146 153.808 212.901L136.141 217.171C135.839 211.239 137.236 205.419 140.029 200.356C141.917 196.88 144.446 193.781 147.579 191.249C150.259 188.982 153.393 187.168 156.903 185.883C160.187 184.674 163.472 184.07 166.794 183.994C170.795 183.881 174.645 184.485 178.345 185.846C185.744 188.491 192.161 193.894 195.86 201.338H195.898C196.427 202.434 196.917 203.568 197.333 204.739C198.276 207.309 198.843 209.954 199.107 212.599V212.637Z" fill="white"/>
</mask>
<g mask="url(#mask0_2012_66)">
<path style="mix-blend-mode:multiply" d="M205.449 180.404C217.378 188.793 214.735 213.166 199.522 234.78C184.309 256.394 162.339 267.126 150.373 258.737C138.444 250.348 141.086 225.976 156.299 204.361C171.512 182.747 193.482 172.016 205.411 180.404H205.449Z" fill="url(#paint23_radial_2012_66)"/>
<path style="mix-blend-mode:color-dodge" d="M223.606 178.931C239.234 189.927 235.761 221.781 215.868 250.084C195.974 278.387 167.209 292.406 151.618 281.41C135.99 270.413 139.463 238.559 159.357 210.256C179.251 181.954 208.016 167.934 223.606 178.931Z" fill="url(#paint24_radial_2012_66)"/>
</g>
<mask id="mask1_2012_66" style="mask-type:luminance" maskUnits="userSpaceOnUse" x="52" y="123" width="79" height="79">
<path d="M78.1584 125.688C98.392 118.32 120.74 128.787 128.101 149.003C131.687 158.903 131.007 169.257 127.119 178.137C125.496 181.727 123.42 185.09 120.777 188.037C116.625 192.799 111.227 196.653 104.847 198.958C95.1078 202.51 84.9533 201.943 76.1199 198.164L83.632 186.11C85.3308 183.352 84.5003 179.724 81.7823 178.024C79.0266 176.323 75.4027 177.192 73.704 179.913L66.1919 191.967C61.2468 187.773 57.3586 182.256 54.9804 175.719C47.6193 155.465 58.0003 133.095 78.2339 125.726L78.1584 125.688Z" fill="white"/>
</mask>
<g mask="url(#mask1_2012_66)">
<path style="mix-blend-mode:multiply" d="M129.422 125.235C142.936 134.757 139.954 162.342 122.702 186.866C105.489 211.39 80.5744 223.52 67.0224 213.997C53.5082 204.475 56.4904 176.89 73.7417 152.366C90.9554 127.842 115.908 115.713 129.422 125.235Z" fill="url(#paint25_radial_2012_66)"/>
<path style="mix-blend-mode:color-dodge" d="M160.074 111.367C180.421 125.689 175.929 167.254 149.995 204.135C124.061 241.015 86.5387 259.342 66.1919 244.983C45.8451 230.661 50.375 189.133 76.3087 152.215C102.242 115.297 139.765 97.008 160.112 111.367H160.074Z" fill="url(#paint26_radial_2012_66)"/>
</g>
<mask id="mask2_2012_66" style="mask-type:luminance" maskUnits="userSpaceOnUse" x="149" y="82" width="69" height="69">
<path d="M187.14 83.0644C199.447 84.4625 210.545 92.6246 215.037 105.094C218.472 114.579 217.415 124.555 212.961 132.792C211.073 136.231 208.62 139.33 205.6 141.975C202.58 144.695 198.918 146.925 194.841 148.399C191.217 149.721 187.518 150.363 183.894 150.439L186.046 136.722C186.536 133.51 184.385 130.525 181.176 129.996C177.967 129.505 174.985 131.659 174.457 134.871L172.305 148.587C163.019 145.413 155.205 138.196 151.581 128.22C145.201 110.687 154.223 91.302 171.739 84.916C172.947 84.4625 174.155 84.1224 175.363 83.8201C179.289 82.8755 183.252 82.6487 187.065 83.1022L187.14 83.0644Z" fill="white"/>
</mask>
<g mask="url(#mask2_2012_66)">
<path style="mix-blend-mode:multiply" d="M217.491 77.8119C230.137 86.7297 227.343 112.501 211.224 135.4C195.143 158.299 171.852 169.673 159.206 160.755C146.56 151.837 149.391 126.066 165.472 103.167C181.554 80.2681 204.845 68.8942 217.491 77.8119Z" fill="url(#paint27_radial_2012_66)"/>
<path style="mix-blend-mode:color-dodge" d="M240.933 79.5124C256.561 90.5084 253.088 122.363 233.194 150.666C213.301 178.968 184.536 192.987 168.945 181.991C153.317 170.995 156.79 139.141 176.684 110.838C196.578 82.5353 225.343 68.5163 240.933 79.5124Z" fill="url(#paint28_radial_2012_66)"/>
</g>
<mask id="mask3_2012_66" style="mask-type:luminance" maskUnits="userSpaceOnUse" x="321" y="110" width="63" height="63">
<path d="M342.29 112.425C358.333 106.568 376.038 114.843 381.889 130.903C387.74 146.963 379.473 164.723 363.429 170.58C350.746 175.19 337.005 170.957 328.889 161.133L355.615 146.698C358.446 145.149 359.541 141.559 357.993 138.725C356.446 135.853 352.935 134.833 350.066 136.382L323.34 150.817C318.395 135.097 326.662 118.131 342.29 112.463V112.425Z" fill="white"/>
</mask>
<g mask="url(#mask3_2012_66)">
<path style="mix-blend-mode:multiply" d="M384.342 115.146C394.837 122.552 392.496 143.977 379.133 162.984C365.77 182.029 346.404 191.438 335.91 184.07C325.416 176.663 327.756 155.238 341.12 136.231C354.483 117.186 373.848 107.777 384.342 115.146Z" fill="url(#paint29_radial_2012_66)"/>
<path style="mix-blend-mode:color-dodge" d="M410.389 103.734C426.018 114.73 422.545 146.585 402.651 174.887C382.757 203.19 353.992 217.209 338.364 206.213C322.773 195.217 326.209 163.362 346.102 135.06C365.996 106.757 394.761 92.738 410.352 103.734H410.389Z" fill="url(#paint30_radial_2012_66)"/>
</g>
<mask id="mask4_2012_66" style="mask-type:luminance" maskUnits="userSpaceOnUse" x="43" y="294" width="71" height="71">
<path d="M110.472 315.229C110.849 316.023 111.189 316.816 111.491 317.648C112.548 320.595 113.19 323.618 113.454 326.603C114.813 341.945 105.791 356.946 90.6156 362.463C72.496 369.076 52.4134 359.705 45.8073 341.605C39.2012 323.467 48.563 303.364 66.6826 296.751C83.934 290.479 102.997 298.716 110.434 315.267L110.472 315.229Z" fill="white"/>
</mask>
<g mask="url(#mask4_2012_66)">
<path style="mix-blend-mode:multiply" d="M114.096 291.801C126.742 300.719 123.948 326.49 107.829 349.389C91.7481 372.288 68.4568 383.662 55.8109 374.744C43.1649 365.864 45.9961 340.055 62.0772 317.156C78.1584 294.257 101.45 282.921 114.096 291.801Z" fill="url(#paint31_radial_2012_66)"/>
<path style="mix-blend-mode:color-dodge" d="M137.009 295.542C152.638 306.538 149.165 338.393 129.271 366.695C109.377 394.998 80.6121 409.017 65.0216 398.021C49.3935 387.025 52.8664 355.17 72.7602 326.905C92.6541 298.603 121.419 284.584 137.009 295.58V295.542Z" fill="url(#paint32_radial_2012_66)"/>
</g>
<mask id="mask5_2012_66" style="mask-type:luminance" maskUnits="userSpaceOnUse" x="231" y="147" width="79" height="79">
<path d="M302.427 208.178C297.972 214.64 291.555 219.854 283.627 222.726C264.451 229.717 243.274 220.686 234.893 202.359L253.617 196.993C253.617 196.993 253.881 196.88 253.994 196.842C256.863 195.784 258.486 192.723 257.656 189.738C256.75 186.601 253.504 184.788 250.37 185.732L231.685 191.098C230.59 182.483 232.402 173.867 236.63 166.612C238.555 163.211 241.009 160.113 243.953 157.467C247.615 154.029 251.994 151.27 257.052 149.457C260.525 148.21 264.036 147.454 267.584 147.189C271.548 146.925 275.511 147.189 279.286 148.134C288.006 150.175 295.934 155.2 301.483 162.607C303.786 165.592 305.635 168.993 306.994 172.734C306.994 172.809 307.032 172.847 307.07 172.922C310.014 181.16 310.014 189.813 307.636 197.598C306.466 201.338 304.729 204.89 302.54 208.14L302.427 208.178Z" fill="white"/>
</mask>
<g mask="url(#mask5_2012_66)">
<path style="mix-blend-mode:multiply" d="M315.865 142.315C330.512 152.631 327.266 182.52 308.58 209.085C289.932 235.649 262.903 248.799 248.256 238.483C233.61 228.167 236.856 198.278 255.542 171.713C274.19 145.149 301.219 131.999 315.865 142.315Z" fill="url(#paint33_radial_2012_66)"/>
<path style="mix-blend-mode:color-dodge" d="M327.605 149.494C342.252 159.81 338.439 190.531 319.074 218.078C299.709 245.625 272.114 259.644 257.467 249.291C242.821 238.975 246.633 208.291 266.036 180.707C285.402 153.16 312.996 139.141 327.643 149.494H327.605Z" fill="url(#paint34_radial_2012_66)"/>
</g>
<mask id="mask6_2012_66" style="mask-type:luminance" maskUnits="userSpaceOnUse" x="148" y="271" width="65" height="64">
<path d="M181.667 271.32C194.124 271.812 205.638 279.709 210.167 292.179C216.132 308.616 207.638 326.868 191.217 332.876C175.665 338.544 158.602 331.289 151.656 316.59L162.113 313.869C162.301 313.869 162.452 313.793 162.641 313.718C165.472 312.697 167.096 309.674 166.303 306.727C165.472 303.553 162.264 301.701 159.168 302.533L148.712 305.253C147.73 291.461 155.884 278.16 169.511 273.21C169.7 273.134 169.927 273.059 170.115 272.983C173.966 271.661 177.854 271.169 181.667 271.32Z" fill="white"/>
</mask>
<g mask="url(#mask6_2012_66)">
<path style="mix-blend-mode:multiply" d="M213.036 265.652C225.192 274.192 222.474 298.981 206.997 321.011C191.519 343.041 169.134 353.961 156.979 345.383C144.824 336.844 147.541 312.055 163.019 290.025C178.496 267.995 200.881 257.075 213.036 265.652Z" fill="url(#paint35_radial_2012_66)"/>
<path style="mix-blend-mode:color-dodge" d="M221.87 279.596C233.006 287.418 230.099 310.732 215.377 331.667C200.692 352.601 179.742 363.219 168.606 355.359C157.47 347.537 160.376 324.223 175.098 303.288C189.821 282.354 210.734 271.736 221.87 279.596Z" fill="url(#paint36_radial_2012_66)"/>
</g>
<mask id="mask7_2012_66" style="mask-type:luminance" maskUnits="userSpaceOnUse" x="0" y="207" width="78" height="79">
<path d="M77.7809 243.358C79.2531 260.513 69.1741 277.177 52.2624 283.337C32.0666 290.705 9.71907 280.276 2.35797 260.022C-5.00313 239.768 5.4534 217.398 25.6115 210.067C35.3508 206.515 45.5053 207.082 54.3387 210.899C57.9248 212.41 61.2845 214.488 64.2667 217.096C68.8344 220.988 72.5715 226.013 74.9875 231.946C75.1762 232.362 75.365 232.853 75.516 233.344C76.7239 236.669 77.4412 239.995 77.7432 243.358H77.7809Z" fill="white"/>
</mask>
<g mask="url(#mask7_2012_66)">
<path style="mix-blend-mode:multiply" d="M76.5729 215.206C88.7282 223.746 86.0102 248.535 70.5331 270.565C55.0559 292.595 32.6706 303.515 20.5153 294.937C8.36009 286.398 11.078 261.609 26.5552 239.579C42.0324 217.549 64.4177 206.666 76.5729 215.206Z" fill="url(#paint37_radial_2012_66)"/>
<path style="mix-blend-mode:color-dodge" d="M90.6157 223.368C101.752 231.19 98.845 254.505 84.1228 275.439C69.4383 296.373 48.4875 306.992 37.3515 299.132C26.2155 291.31 29.1222 267.995 43.8444 247.061C58.5666 226.127 79.4796 215.509 90.6157 223.368Z" fill="url(#paint38_radial_2012_66)"/>
</g>
<mask id="mask8_2012_66" style="mask-type:luminance" maskUnits="userSpaceOnUse" x="246" y="54" width="64" height="65">
<path d="M267.244 56.7645C283.665 50.7941 301.898 59.2962 307.9 75.7337C313.902 92.2467 305.371 110.422 288.95 116.431C286.496 117.337 284.005 117.904 281.513 118.169L282.646 103.696C282.872 100.447 280.494 97.6125 277.248 97.3858C274.039 97.1213 271.208 99.5396 270.981 102.752L269.849 117.262C260.223 114.655 251.994 107.551 248.294 97.4614C242.292 80.9861 250.786 62.7727 267.244 56.7645Z" fill="white"/>
</mask>
<g mask="url(#mask8_2012_66)">
<path style="mix-blend-mode:multiply" d="M303.37 69.9523C313.563 77.1318 311.298 97.9526 298.312 116.431C285.326 134.909 266.527 144.091 256.335 136.873C246.142 129.694 248.407 108.911 261.393 90.3952C274.379 71.9172 293.178 62.7349 303.37 69.9145V69.9523Z" fill="url(#paint39_radial_2012_66)"/>
<path style="mix-blend-mode:color-dodge" d="M306.654 67.4205C315.79 70.1034 319.3 85.7095 314.431 102.298C309.599 118.887 298.236 130.147 289.101 127.464C279.966 124.781 276.455 109.175 281.325 92.5868C286.157 75.9982 297.519 64.7376 306.654 67.4205Z" fill="url(#paint40_radial_2012_66)"/>
</g>
<mask id="mask9_2012_66" style="mask-type:luminance" maskUnits="userSpaceOnUse" x="150" y="0" width="55" height="54">
<path d="M168.606 1.63291C182.573 -3.46837 198.088 3.78678 203.184 17.7681C208.28 31.7871 201.07 47.3177 187.065 52.4189C186.461 52.6457 185.895 52.7968 185.291 52.9858L184.573 41.2717C184.385 38.0598 181.591 35.5658 178.383 35.7926C175.136 35.9815 172.682 38.7778 172.909 41.9897L173.626 53.7037H173.588C164.227 52.23 155.922 45.844 152.449 36.246C147.353 22.2647 154.601 6.6964 168.606 1.59512V1.63291Z" fill="white"/>
</mask>
<g mask="url(#mask9_2012_66)">
<path style="mix-blend-mode:multiply" d="M201.787 -8.75849C211.828 -1.69227 209.601 18.8262 196.804 37.0396C184.007 55.2531 165.472 64.2842 155.431 57.218C145.39 50.1518 147.617 29.6333 160.414 11.4199C173.211 -6.79355 191.746 -15.8247 201.787 -8.75849Z" fill="url(#paint41_radial_2012_66)"/>
<path style="mix-blend-mode:color-dodge" d="M240.518 -37.3635C260.865 -23.0421 256.372 18.5239 230.439 55.4042C204.505 92.3223 166.982 110.611 146.635 96.2522C126.289 81.9308 130.819 40.4027 156.752 3.48454C182.611 -33.3958 220.171 -51.6848 240.518 -37.3635Z" fill="url(#paint42_radial_2012_66)"/>
</g>
<mask id="mask10_2012_66" style="mask-type:luminance" maskUnits="userSpaceOnUse" x="337" y="202" width="65" height="64">
<path d="M358.56 204.324C375.056 198.315 393.214 206.78 399.216 223.293C405.218 239.73 396.724 257.982 380.266 263.99C363.845 269.998 345.649 261.458 339.647 245.02C337.307 238.634 337.156 231.946 338.817 225.862L351.916 232.173C353.388 232.891 355.011 232.966 356.446 232.437C357.842 231.946 359.05 230.888 359.73 229.452C361.127 226.58 359.956 223.066 357.012 221.63L343.875 215.282C347.461 210.445 352.482 206.591 358.522 204.361L358.56 204.324Z" fill="white"/>
</mask>
<g mask="url(#mask10_2012_66)">
<path style="mix-blend-mode:multiply" d="M398.045 197.975C409.974 206.364 407.332 230.737 392.119 252.351C376.944 273.965 354.936 284.697 342.969 276.308C331.04 267.92 333.683 243.547 348.896 221.932C364.109 200.318 386.079 189.587 398.008 197.975H398.045Z" fill="url(#paint43_radial_2012_66)"/>
<path style="mix-blend-mode:color-dodge" d="M418.505 207.195C430.434 215.622 427.792 239.957 412.579 261.571C397.366 283.186 375.396 293.917 363.467 285.528C351.538 277.14 354.181 252.767 369.394 231.153C384.607 209.538 406.577 198.807 418.505 207.195Z" fill="url(#paint44_radial_2012_66)"/>
</g>
<defs>
<linearGradient id="paint0_linear_2012_66" x1="335.527" y1="206.029" x2="374.504" y2="238.85" gradientUnits="userSpaceOnUse">
<stop offset="0.11" stop-color="white"/>
<stop offset="1"/>
</linearGradient>
<linearGradient id="paint1_linear_2012_66" x1="319.809" y1="110.099" x2="363.421" y2="146.818" gradientUnits="userSpaceOnUse">
<stop offset="0.11" stop-color="white"/>
<stop offset="1"/>
</linearGradient>
<linearGradient id="paint2_linear_2012_66" x1="144.265" y1="275.512" x2="183.522" y2="308.552" gradientUnits="userSpaceOnUse">
<stop offset="0.11" stop-color="white"/>
<stop offset="1"/>
</linearGradient>
<linearGradient id="paint3_linear_2012_66" x1="226.646" y1="149.31" x2="280.645" y2="194.783" gradientUnits="userSpaceOnUse">
<stop offset="0.11" stop-color="white"/>
<stop offset="1"/>
</linearGradient>
<linearGradient id="paint4_linear_2012_66" x1="242.971" y1="59.1974" x2="282.241" y2="92.2733" gradientUnits="userSpaceOnUse">
<stop offset="0.11" stop-color="white"/>
<stop offset="1"/>
</linearGradient>
<linearGradient id="paint5_linear_2012_66" x1="47.4571" y1="124.72" x2="105.957" y2="173.939" gradientUnits="userSpaceOnUse">
<stop offset="0.11" stop-color="white"/>
<stop offset="1"/>
</linearGradient>
<linearGradient id="paint6_linear_2012_66" x1="328.176" y1="148.027" x2="334.02" y2="158.764" gradientUnits="userSpaceOnUse">
<stop stop-color="#545454"/>
<stop offset="0.12" stop-color="#B5B5B5"/>
<stop offset="0.19" stop-color="#DBDBDB"/>
<stop offset="0.29" stop-color="white"/>
<stop offset="0.5" stop-color="#D3D2D1"/>
<stop offset="0.58" stop-color="#9F9FA0"/>
<stop offset="0.66" stop-color="#ABAAAB"/>
<stop offset="0.72" stop-color="#A3A1A1"/>
<stop offset="0.88" stop-color="#545454"/>
<stop offset="1" stop-color="#707070"/>
</linearGradient>
<linearGradient id="paint7_linear_2012_66" x1="132.529" y1="187.661" x2="171.505" y2="220.483" gradientUnits="userSpaceOnUse">
<stop offset="0.11" stop-color="white"/>
<stop offset="1"/>
</linearGradient>
<linearGradient id="paint8_linear_2012_66" x1="329.662" y1="221.718" x2="334.673" y2="211.173" gradientUnits="userSpaceOnUse">
<stop stop-color="#545454"/>
<stop offset="0.12" stop-color="#B5B5B5"/>
<stop offset="0.19" stop-color="#DBDBDB"/>
<stop offset="0.29" stop-color="white"/>
<stop offset="0.5" stop-color="#D3D2D1"/>
<stop offset="0.58" stop-color="#9F9FA0"/>
<stop offset="0.66" stop-color="#ABAAAB"/>
<stop offset="0.72" stop-color="#A3A1A1"/>
<stop offset="0.88" stop-color="#545454"/>
<stop offset="1" stop-color="#707070"/>
</linearGradient>
<linearGradient id="paint9_linear_2012_66" x1="143.667" y1="85.1634" x2="189.885" y2="124.067" gradientUnits="userSpaceOnUse">
<stop offset="0.11" stop-color="white"/>
<stop offset="1"/>
</linearGradient>
<linearGradient id="paint10_linear_2012_66" x1="137.647" y1="308.243" x2="140.549" y2="319.411" gradientUnits="userSpaceOnUse">
<stop stop-color="#545454"/>
<stop offset="0.12" stop-color="#B5B5B5"/>
<stop offset="0.19" stop-color="#DBDBDB"/>
<stop offset="0.29" stop-color="white"/>
<stop offset="0.5" stop-color="#D3D2D1"/>
<stop offset="0.58" stop-color="#9F9FA0"/>
<stop offset="0.66" stop-color="#ABAAAB"/>
<stop offset="0.72" stop-color="#A3A1A1"/>
<stop offset="0.88" stop-color="#545454"/>
<stop offset="1" stop-color="#707070"/>
</linearGradient>
<linearGradient id="paint11_linear_2012_66" x1="168.207" y1="260.154" x2="179.753" y2="258.324" gradientUnits="userSpaceOnUse">
<stop stop-color="#545454"/>
<stop offset="0.12" stop-color="#B5B5B5"/>
<stop offset="0.19" stop-color="#DBDBDB"/>
<stop offset="0.29" stop-color="white"/>
<stop offset="0.5" stop-color="#D3D2D1"/>
<stop offset="0.58" stop-color="#9F9FA0"/>
<stop offset="0.66" stop-color="#ABAAAB"/>
<stop offset="0.72" stop-color="#A3A1A1"/>
<stop offset="0.88" stop-color="#545454"/>
<stop offset="1" stop-color="#707070"/>
</linearGradient>
<linearGradient id="paint12_linear_2012_66" x1="225.885" y1="192.735" x2="229.149" y2="204.012" gradientUnits="userSpaceOnUse">
<stop stop-color="#545454"/>
<stop offset="0.12" stop-color="#B5B5B5"/>
<stop offset="0.19" stop-color="#DBDBDB"/>
<stop offset="0.29" stop-color="white"/>
<stop offset="0.5" stop-color="#D3D2D1"/>
<stop offset="0.58" stop-color="#9F9FA0"/>
<stop offset="0.66" stop-color="#ABAAAB"/>
<stop offset="0.72" stop-color="#A3A1A1"/>
<stop offset="0.88" stop-color="#545454"/>
<stop offset="1" stop-color="#707070"/>
</linearGradient>
<linearGradient id="paint13_linear_2012_66" x1="269.384" y1="122.117" x2="281.243" y2="123.022" gradientUnits="userSpaceOnUse">
<stop stop-color="#545454"/>
<stop offset="0.12" stop-color="#B5B5B5"/>
<stop offset="0.19" stop-color="#DBDBDB"/>
<stop offset="0.29" stop-color="white"/>
<stop offset="0.5" stop-color="#D3D2D1"/>
<stop offset="0.58" stop-color="#9F9FA0"/>
<stop offset="0.66" stop-color="#ABAAAB"/>
<stop offset="0.72" stop-color="#A3A1A1"/>
<stop offset="0.88" stop-color="#545454"/>
<stop offset="1" stop-color="#707070"/>
</linearGradient>
<linearGradient id="paint14_linear_2012_66" x1="221.026" y1="154.293" x2="228.476" y2="145.155" gradientUnits="userSpaceOnUse">
<stop stop-color="#545454"/>
<stop offset="0.12" stop-color="#B5B5B5"/>
<stop offset="0.19" stop-color="#DBDBDB"/>
<stop offset="0.29" stop-color="white"/>
<stop offset="0.5" stop-color="#D3D2D1"/>
<stop offset="0.58" stop-color="#9F9FA0"/>
<stop offset="0.66" stop-color="#ABAAAB"/>
<stop offset="0.72" stop-color="#A3A1A1"/>
<stop offset="0.88" stop-color="#545454"/>
<stop offset="1" stop-color="#707070"/>
</linearGradient>
<linearGradient id="paint15_linear_2012_66" x1="174.018" y1="60.0313" x2="185.938" y2="59.2287" gradientUnits="userSpaceOnUse">
<stop stop-color="#545454"/>
<stop offset="0.12" stop-color="#B5B5B5"/>
<stop offset="0.19" stop-color="#DBDBDB"/>
<stop offset="0.29" stop-color="white"/>
<stop offset="0.5" stop-color="#D3D2D1"/>
<stop offset="0.58" stop-color="#9F9FA0"/>
<stop offset="0.66" stop-color="#ABAAAB"/>
<stop offset="0.72" stop-color="#A3A1A1"/>
<stop offset="0.88" stop-color="#545454"/>
<stop offset="1" stop-color="#707070"/>
</linearGradient>
<linearGradient id="paint16_linear_2012_66" x1="170.631" y1="156.448" x2="182.759" y2="158.419" gradientUnits="userSpaceOnUse">
<stop stop-color="#545454"/>
<stop offset="0.12" stop-color="#B5B5B5"/>
<stop offset="0.19" stop-color="#DBDBDB"/>
<stop offset="0.29" stop-color="white"/>
<stop offset="0.5" stop-color="#D3D2D1"/>
<stop offset="0.58" stop-color="#9F9FA0"/>
<stop offset="0.66" stop-color="#ABAAAB"/>
<stop offset="0.72" stop-color="#A3A1A1"/>
<stop offset="0.88" stop-color="#545454"/>
<stop offset="1" stop-color="#707070"/>
</linearGradient>
<linearGradient id="paint17_linear_2012_66" x1="130.589" y1="194.48" x2="137.272" y2="184.777" gradientUnits="userSpaceOnUse">
<stop stop-color="#545454"/>
<stop offset="0.12" stop-color="#B5B5B5"/>
<stop offset="0.19" stop-color="#DBDBDB"/>
<stop offset="0.29" stop-color="white"/>
<stop offset="0.5" stop-color="#D3D2D1"/>
<stop offset="0.58" stop-color="#9F9FA0"/>
<stop offset="0.66" stop-color="#ABAAAB"/>
<stop offset="0.72" stop-color="#A3A1A1"/>
<stop offset="0.88" stop-color="#545454"/>
<stop offset="1" stop-color="#707070"/>
</linearGradient>
<linearGradient id="paint18_linear_2012_66" x1="117.181" y1="221.683" x2="120.012" y2="233.32" gradientUnits="userSpaceOnUse">
<stop stop-color="#545454"/>
<stop offset="0.12" stop-color="#B5B5B5"/>
<stop offset="0.19" stop-color="#DBDBDB"/>
<stop offset="0.29" stop-color="white"/>
<stop offset="0.5" stop-color="#D3D2D1"/>
<stop offset="0.58" stop-color="#9F9FA0"/>
<stop offset="0.66" stop-color="#ABAAAB"/>
<stop offset="0.72" stop-color="#A3A1A1"/>
<stop offset="0.88" stop-color="#545454"/>
<stop offset="1" stop-color="#707070"/>
</linearGradient>
<linearGradient id="paint19_linear_2012_66" x1="65.7573" y1="193.169" x2="75.756" y2="199.211" gradientUnits="userSpaceOnUse">
<stop stop-color="#545454"/>
<stop offset="0.12" stop-color="#B5B5B5"/>
<stop offset="0.19" stop-color="#DBDBDB"/>
<stop offset="0.29" stop-color="white"/>
<stop offset="0.5" stop-color="#D3D2D1"/>
<stop offset="0.58" stop-color="#9F9FA0"/>
<stop offset="0.66" stop-color="#ABAAAB"/>
<stop offset="0.72" stop-color="#A3A1A1"/>
<stop offset="0.88" stop-color="#545454"/>
<stop offset="1" stop-color="#707070"/>
</linearGradient>
<linearGradient id="paint20_linear_2012_66" x1="38.2014" y1="301.448" x2="84.4193" y2="340.352" gradientUnits="userSpaceOnUse">
<stop offset="0.11" stop-color="white"/>
<stop offset="1"/>
</linearGradient>
<linearGradient id="paint21_linear_2012_66" x1="147.197" y1="2.72898" x2="181.476" y2="31.595" gradientUnits="userSpaceOnUse">
<stop offset="0.11" stop-color="white"/>
<stop offset="1"/>
</linearGradient>
<linearGradient id="paint22_linear_2012_66" x1="-4.57729" y1="212.079" x2="49.4216" y2="257.553" gradientUnits="userSpaceOnUse">
<stop offset="0.11" stop-color="white"/>
<stop offset="1"/>
</linearGradient>
<radialGradient id="paint23_radial_2012_66" cx="0" cy="0" r="1" gradientUnits="userSpaceOnUse" gradientTransform="translate(177.16 219.278) rotate(-54.8971) scale(47.9258 26.4068)">
<stop offset="0.2" stop-color="#FFB35C"/>
<stop offset="0.42" stop-color="#FFD29D"/>
<stop offset="0.59" stop-color="#FFE6C9"/>
<stop offset="0.8" stop-color="#FFF5E9"/>
<stop offset="1" stop-color="white"/>
</radialGradient>
<radialGradient id="paint24_radial_2012_66" cx="0" cy="0" r="1" gradientUnits="userSpaceOnUse" gradientTransform="translate(186.75 229.905) rotate(-54.8971) scale(62.6058 34.4954)">
<stop stop-color="#515463"/>
<stop offset="0.2" stop-color="#272930"/>
<stop offset="0.43" stop-color="#17181C"/>
<stop offset="0.6" stop-color="#101114"/>
<stop offset="0.81" stop-color="#070809"/>
<stop offset="1"/>
</radialGradient>
<radialGradient id="paint25_radial_2012_66" cx="0" cy="0" r="1" gradientUnits="userSpaceOnUse" gradientTransform="translate(97.5651 169.38) rotate(-54.8971) scale(54.2584 29.896)">
<stop offset="0.2" stop-color="#FFB35C"/>
<stop offset="0.42" stop-color="#FFD29D"/>
<stop offset="0.59" stop-color="#FFE6C9"/>
<stop offset="0.8" stop-color="#FFF5E9"/>
<stop offset="1" stop-color="white"/>
</radialGradient>
<radialGradient id="paint26_radial_2012_66" cx="0" cy="0" r="1" gradientUnits="userSpaceOnUse" gradientTransform="translate(112.415 177.903) rotate(-54.8971) scale(81.7474 45.0423)">
<stop stop-color="#515463"/>
<stop offset="0.2" stop-color="#272930"/>
<stop offset="0.43" stop-color="#17181C"/>
<stop offset="0.6" stop-color="#101114"/>
<stop offset="0.81" stop-color="#070809"/>
<stop offset="1"/>
</radialGradient>
<radialGradient id="paint27_radial_2012_66" cx="0" cy="0" r="1" gradientUnits="userSpaceOnUse" gradientTransform="translate(187.595 119.07) rotate(-54.8971) scale(50.6603 27.9135)">
<stop offset="0.1" stop-color="#02AEC4"/>
<stop offset="0.37" stop-color="#76D3E0"/>
<stop offset="0.49" stop-color="#99DEE8"/>
<stop offset="0.64" stop-color="#BCE9F0"/>
<stop offset="0.78" stop-color="#DBF3F7"/>
<stop offset="1" stop-color="white"/>
</radialGradient>
<radialGradient id="paint28_radial_2012_66" cx="0" cy="0" r="1" gradientUnits="userSpaceOnUse" gradientTransform="translate(204.228 130.433) rotate(-54.8971) scale(62.6058 34.4954)">
<stop stop-color="#515463"/>
<stop offset="0.2" stop-color="#272930"/>
<stop offset="0.43" stop-color="#17181C"/>
<stop offset="0.6" stop-color="#101114"/>
<stop offset="0.81" stop-color="#070809"/>
<stop offset="1"/>
</radialGradient>
<radialGradient id="paint29_radial_2012_66" cx="0" cy="0" r="1" gradientUnits="userSpaceOnUse" gradientTransform="translate(359.171 149.254) rotate(-54.8971) scale(42.169 23.2348)">
<stop offset="0.1" stop-color="#02AEC4"/>
<stop offset="0.37" stop-color="#76D3E0"/>
<stop offset="0.49" stop-color="#99DEE8"/>
<stop offset="0.64" stop-color="#BCE9F0"/>
<stop offset="0.78" stop-color="#DBF3F7"/>
<stop offset="1" stop-color="white"/>
</radialGradient>
<radialGradient id="paint30_radial_2012_66" cx="0" cy="0" r="1" gradientUnits="userSpaceOnUse" gradientTransform="translate(373.465 154.569) rotate(-54.8971) scale(62.6058 34.4954)">
<stop stop-color="#515463"/>
<stop offset="0.2" stop-color="#272930"/>
<stop offset="0.43" stop-color="#17181C"/>
<stop offset="0.6" stop-color="#101114"/>
<stop offset="0.81" stop-color="#070809"/>
<stop offset="1"/>
</radialGradient>
<radialGradient id="paint31_radial_2012_66" cx="0" cy="0" r="1" gradientUnits="userSpaceOnUse" gradientTransform="translate(84.1562 332.978) rotate(-54.8971) scale(50.6603 27.9135)">
<stop offset="0.1" stop-color="#02AEC4"/>
<stop offset="0.37" stop-color="#76D3E0"/>
<stop offset="0.49" stop-color="#99DEE8"/>
<stop offset="0.64" stop-color="#BCE9F0"/>
<stop offset="0.78" stop-color="#DBF3F7"/>
<stop offset="1" stop-color="white"/>
</radialGradient>
<radialGradient id="paint32_radial_2012_66" cx="0" cy="0" r="1" gradientUnits="userSpaceOnUse" gradientTransform="translate(100.196 346.564) rotate(-54.8971) scale(62.6058 34.4954)">
<stop stop-color="#515463"/>
<stop offset="0.2" stop-color="#272930"/>
<stop offset="0.43" stop-color="#17181C"/>
<stop offset="0.6" stop-color="#101114"/>
<stop offset="0.81" stop-color="#070809"/>
<stop offset="1"/>
</radialGradient>
<radialGradient id="paint33_radial_2012_66" cx="0" cy="0" r="1" gradientUnits="userSpaceOnUse" gradientTransform="translate(281.149 190.066) rotate(-54.8971) scale(58.7199 32.3543)">
<stop offset="0.12" stop-color="#B75AD9"/>
<stop offset="0.41" stop-color="#D299E8"/>
<stop offset="0.56" stop-color="#E5C5F2"/>
<stop offset="0.68" stop-color="#EFDCF7"/>
<stop offset="0.83" stop-color="#F9F2FC"/>
<stop offset="1" stop-color="white"/>
</radialGradient>
<radialGradient id="paint34_radial_2012_66" cx="0" cy="0" r="1" gradientUnits="userSpaceOnUse" gradientTransform="translate(292.081 198.379) rotate(-54.8971) scale(60.8776 32.3543)">
<stop stop-color="#515463"/>
<stop offset="0.2" stop-color="#272930"/>
<stop offset="0.43" stop-color="#17181C"/>
<stop offset="0.6" stop-color="#101114"/>
<stop offset="0.81" stop-color="#070809"/>
<stop offset="1"/>
</radialGradient>
<radialGradient id="paint35_radial_2012_66" cx="0" cy="0" r="1" gradientUnits="userSpaceOnUse" gradientTransform="translate(184.149 305.176) rotate(-54.8971) scale(48.7894 26.8826)">
<stop offset="0.12" stop-color="#B75AD9"/>
<stop offset="0.41" stop-color="#D299E8"/>
<stop offset="0.56" stop-color="#E5C5F2"/>
<stop offset="0.68" stop-color="#EFDCF7"/>
<stop offset="0.83" stop-color="#F9F2FC"/>
<stop offset="1" stop-color="white"/>
</radialGradient>
<radialGradient id="paint36_radial_2012_66" cx="0" cy="0" r="1" gradientUnits="userSpaceOnUse" gradientTransform="translate(194.946 316.302) rotate(-54.8971) scale(46.2551 24.5829)">
<stop stop-color="#515463"/>
<stop offset="0.2" stop-color="#272930"/>
<stop offset="0.43" stop-color="#17181C"/>
<stop offset="0.6" stop-color="#101114"/>
<stop offset="0.81" stop-color="#070809"/>
<stop offset="1"/>
</radialGradient>
<radialGradient id="paint37_radial_2012_66" cx="0" cy="0" r="1" gradientUnits="userSpaceOnUse" gradientTransform="translate(47.8107 254.921) rotate(-54.8971) scale(48.7894 26.8826)">
<stop offset="0.12" stop-color="#B75AD9"/>
<stop offset="0.41" stop-color="#D299E8"/>
<stop offset="0.56" stop-color="#E5C5F2"/>
<stop offset="0.68" stop-color="#EFDCF7"/>
<stop offset="0.83" stop-color="#F9F2FC"/>
<stop offset="1" stop-color="white"/>
</radialGradient>
<radialGradient id="paint38_radial_2012_66" cx="0" cy="0" r="1" gradientUnits="userSpaceOnUse" gradientTransform="translate(63.9145 260.152) rotate(-54.8971) scale(46.2551 24.5829)">
<stop stop-color="#515463"/>
<stop offset="0.2" stop-color="#272930"/>
<stop offset="0.43" stop-color="#17181C"/>
<stop offset="0.6" stop-color="#101114"/>
<stop offset="0.81" stop-color="#070809"/>
<stop offset="1"/>
</radialGradient>
<radialGradient id="paint39_radial_2012_66" cx="0" cy="0" r="1" gradientUnits="userSpaceOnUse" gradientTransform="translate(279.099 103.07) rotate(-54.8971) scale(40.8737 22.5211)">
<stop offset="0.12" stop-color="#B75AD9"/>
<stop offset="0.41" stop-color="#D299E8"/>
<stop offset="0.56" stop-color="#E5C5F2"/>
<stop offset="0.68" stop-color="#EFDCF7"/>
<stop offset="0.83" stop-color="#F9F2FC"/>
<stop offset="1" stop-color="white"/>
</radialGradient>
<radialGradient id="paint40_radial_2012_66" cx="0" cy="0" r="1" gradientUnits="userSpaceOnUse" gradientTransform="translate(296.755 97.2733) rotate(-73.7055) scale(31.2389 17.2037)">
<stop stop-color="#515463"/>
<stop offset="0.2" stop-color="#272930"/>
<stop offset="0.43" stop-color="#17181C"/>
<stop offset="0.6" stop-color="#101114"/>
<stop offset="0.81" stop-color="#070809"/>
<stop offset="1"/>
</radialGradient>
<radialGradient id="paint41_radial_2012_66" cx="0" cy="0" r="1" gradientUnits="userSpaceOnUse" gradientTransform="translate(178.053 23.9805) rotate(-54.8971) scale(40.298 22.2039)">
<stop offset="0.2" stop-color="#FFB35C"/>
<stop offset="0.42" stop-color="#FFD29D"/>
<stop offset="0.59" stop-color="#FFE6C9"/>
<stop offset="0.8" stop-color="#FFF5E9"/>
<stop offset="1" stop-color="white"/>
</radialGradient>
<radialGradient id="paint42_radial_2012_66" cx="0" cy="0" r="1" gradientUnits="userSpaceOnUse" gradientTransform="translate(192.919 29.1696) rotate(-54.8971) scale(81.7474 45.0423)">
<stop stop-color="#515463"/>
<stop offset="0.2" stop-color="#272930"/>
<stop offset="0.43" stop-color="#17181C"/>
<stop offset="0.6" stop-color="#101114"/>
<stop offset="0.81" stop-color="#070809"/>
<stop offset="1"/>
</radialGradient>
<radialGradient id="paint43_radial_2012_66" cx="0" cy="0" r="1" gradientUnits="userSpaceOnUse" gradientTransform="translate(369.557 236.664) rotate(-54.8971) scale(47.9258 26.4068)">
<stop offset="0.2" stop-color="#FFB35C"/>
<stop offset="0.42" stop-color="#FFD29D"/>
<stop offset="0.59" stop-color="#FFE6C9"/>
<stop offset="0.8" stop-color="#FFF5E9"/>
<stop offset="1" stop-color="white"/>
</radialGradient>
<radialGradient id="paint44_radial_2012_66" cx="0" cy="0" r="1" gradientUnits="userSpaceOnUse" gradientTransform="translate(389.916 245.898) rotate(-54.8971) scale(47.9258 26.4068)">
<stop stop-color="#515463"/>
<stop offset="0.2" stop-color="#272930"/>
<stop offset="0.43" stop-color="#17181C"/>
<stop offset="0.6" stop-color="#101114"/>
<stop offset="0.81" stop-color="#070809"/>
<stop offset="1"/>
</radialGradient>
</defs>
</svg>
